<svg width="125" height="43" viewBox="0 0 125 43" fill="none" xmlns="http://www.w3.org/2000/svg">
<path d="M52.47 31.27C51.85 31.27 51.35 31.15 50.97 30.91C50.59 30.65 50.31 30.28 50.13 29.8C49.95 29.3 49.86 28.7 49.86 28V9.64H52.32V28.18C52.32 28.58 52.39 28.86 52.53 29.02C52.67 29.16 52.84 29.23 53.04 29.23C53.12 29.23 53.19 29.23 53.25 29.23C53.33 29.21 53.43 29.19 53.55 29.17L53.91 31.03C53.73 31.09 53.52 31.14 53.28 31.18C53.06 31.24 52.79 31.27 52.47 31.27ZM57.5065 31V16.42H59.9665V31H57.5065ZM58.7365 13.42C58.2565 13.42 57.8565 13.27 57.5365 12.97C57.2365 12.67 57.0865 12.28 57.0865 11.8C57.0865 11.32 57.2365 10.93 57.5365 10.63C57.8565 10.33 58.2565 10.18 58.7365 10.18C59.2165 10.18 59.6065 10.33 59.9065 10.63C60.2265 10.93 60.3865 11.32 60.3865 11.8C60.3865 12.28 60.2265 12.67 59.9065 12.97C59.6065 13.27 59.2165 13.42 58.7365 13.42ZM68.6993 31.36C67.6393 31.36 66.6293 31.18 65.6693 30.82C64.7293 30.44 63.9293 29.92 63.2693 29.26L64.4093 27.82C65.0493 28.34 65.7093 28.74 66.3893 29.02C67.0893 29.3 67.8893 29.44 68.7893 29.44C69.7493 29.44 70.4693 29.22 70.9493 28.78C71.4293 28.32 71.6693 27.78 71.6693 27.16C71.6693 26.66 71.4993 26.25 71.1593 25.93C70.8393 25.59 70.4293 25.31 69.9293 25.09C69.4493 24.85 68.9293 24.63 68.3693 24.43C67.6493 24.17 66.9593 23.87 66.2993 23.53C65.6393 23.17 65.0993 22.73 64.6793 22.21C64.2793 21.67 64.0793 21 64.0793 20.2C64.0793 19.02 64.5193 18.04 65.3993 17.26C66.2993 16.46 67.5393 16.06 69.1193 16.06C70.0193 16.06 70.8593 16.22 71.6393 16.54C72.4193 16.84 73.0893 17.23 73.6493 17.71L72.5093 19.12C71.9893 18.76 71.4593 18.48 70.9193 18.28C70.3793 18.08 69.7793 17.98 69.1193 17.98C68.1993 17.98 67.5193 18.19 67.0793 18.61C66.6593 19.03 66.4493 19.52 66.4493 20.08C66.4493 20.52 66.5793 20.89 66.8393 21.19C67.0993 21.47 67.4593 21.72 67.9193 21.94C68.3993 22.16 68.9393 22.37 69.5393 22.57C70.2993 22.85 71.0193 23.17 71.6993 23.53C72.3993 23.87 72.9593 24.32 73.3793 24.88C73.8193 25.42 74.0393 26.13 74.0393 27.01C74.0393 27.81 73.8293 28.54 73.4093 29.2C73.0093 29.84 72.4093 30.36 71.6093 30.76C70.8293 31.16 69.8593 31.36 68.6993 31.36ZM81.4617 31.27C79.9217 31.27 78.8417 30.82 78.2217 29.92C77.6017 29.02 77.2917 27.85 77.2917 26.41V18.43H75.1317V16.57L77.4117 16.42L77.7117 11.74H79.7817V16.42H83.7417V18.43H79.7817V26.44C79.7817 27.32 79.9417 28.01 80.2617 28.51C80.6017 29.01 81.1917 29.26 82.0317 29.26C82.2917 29.26 82.5617 29.24 82.8417 29.2C83.1217 29.14 83.4017 29.04 83.6817 28.9L84.2217 30.64C83.8417 30.82 83.4117 30.97 82.9317 31.09C82.4517 31.21 81.9617 31.27 81.4617 31.27ZM87.0085 31V16.42H89.0485L89.2585 18.52H89.3485C89.9885 17.84 90.6785 17.26 91.4185 16.78C92.1785 16.3 92.9985 16.06 93.8785 16.06C94.9985 16.06 95.8685 16.31 96.4885 16.81C97.1285 17.31 97.5985 17.99 97.8985 18.85C98.6585 18.01 99.4285 17.34 100.208 16.84C100.988 16.32 101.818 16.06 102.698 16.06C104.218 16.06 105.338 16.55 106.058 17.53C106.778 18.49 107.138 19.9 107.138 21.76V31H104.678V22.09C104.678 20.71 104.458 19.72 104.018 19.12C103.578 18.5 102.898 18.19 101.978 18.19C101.398 18.19 100.808 18.38 100.208 18.76C99.6285 19.12 98.9985 19.68 98.3185 20.44V31H95.8585V22.09C95.8585 20.71 95.6385 19.72 95.1985 19.12C94.7585 18.5 94.0685 18.19 93.1285 18.19C92.0285 18.19 90.8085 18.94 89.4685 20.44V31H87.0085ZM117.792 31.36C116.492 31.36 115.302 31.06 114.222 30.46C113.162 29.84 112.322 28.97 111.702 27.85C111.082 26.71 110.772 25.33 110.772 23.71C110.772 22.13 111.092 20.77 111.732 19.63C112.372 18.49 113.192 17.61 114.192 16.99C115.192 16.37 116.252 16.06 117.372 16.06C118.612 16.06 119.662 16.35 120.522 16.93C121.402 17.49 122.062 18.28 122.502 19.3C122.942 20.32 123.162 21.52 123.162 22.9C123.162 23.16 123.152 23.41 123.132 23.65C123.132 23.89 123.102 24.13 123.042 24.37H112.542V22.42H120.942C120.942 21.02 120.632 19.95 120.012 19.21C119.412 18.45 118.542 18.07 117.402 18.07C116.742 18.07 116.092 18.26 115.452 18.64C114.812 19 114.282 19.59 113.862 20.41C113.462 21.23 113.262 22.32 113.262 23.68C113.262 24.92 113.472 25.96 113.892 26.8C114.332 27.64 114.922 28.28 115.662 28.72C116.402 29.14 117.212 29.35 118.092 29.35C118.792 29.35 119.442 29.25 120.042 29.05C120.662 28.85 121.222 28.58 121.722 28.24L122.622 29.86C121.982 30.3 121.262 30.66 120.462 30.94C119.682 31.22 118.792 31.36 117.792 31.36Z" fill="#F4F4F4"/>
<rect x="40" y="4" width="2.4" height="35" rx="1.2" fill="#6A7FA5"/>
<path d="M9.96509 0.381234C7.323 -1.00944 2.11584 1.67768 0.61998 4.04331C-0.0464252 5.10189 0.000724544 5.86474 0.000724544 6.29755V29.452L19.5278 41.6027L23.1999 39.5977V17.048L3.15071 5.53681C4.22659 4.18275 6.64627 2.53161 8.46059 3.19475L26.3187 12.746L26.3187 37.8664L30 35.8578V10.7379L9.96509 0.381234Z" fill="#F07474"/>
</svg>
